<svg xmlns="http://www.w3.org/2000/svg" width="24" height="24" viewBox="0 0 24 24">
  <circle cx="12" cy="12" r="12" fill="black"/>
  <g stroke="white" stroke-width="1.8" stroke-linecap="round" stroke-linejoin="round" transform="scale(0.75) translate(4, 4)">
    <path stroke="none" d="M0 0h24v24H0z" fill="none"/>
    <path d="M6 21l15 -15l-3 -3l-15 15l3 3" />
    <path d="M15 6l3 3" />
    <path d="M9 3a2 2 0 0 0 2 2a2 2 0 0 0 -2 2a2 2 0 0 0 -2 -2a2 2 0 0 0 2 -2" />
    <path d="M19 13a2 2 0 0 0 2 2a2 2 0 0 0 -2 2a2 2 0 0 0 -2 -2a2 2 0 0 0 2 -2" />
  </g>
</svg>